<svg width="148" height="52" viewBox="0 0 148 52" fill="none" xmlns="http://www.w3.org/2000/svg">
<g clip-path="url(#clip0_4_608)">
<path d="M0 27C0 28.0609 0.421427 29.0783 1.17157 29.8284C1.92172 30.5786 2.93913 31 4 31H32C33.0609 31 34.0783 30.5786 34.8284 29.8284C35.5786 29.0783 36 28.0609 36 27V23H0V27Z" fill="#138808"/>
<path d="M0 13H36V23H0V13Z" fill="#EEEEEE"/>
<path d="M36 13V9C36 7.93913 35.5786 6.92172 34.8284 6.17157C34.0783 5.42143 33.0609 5 32 5H4C2.93913 5 1.92172 5.42143 1.17157 6.17157C0.421427 6.92172 0 7.93913 0 9L0 13H36Z" fill="#FF9933"/>
<path d="M18 22C20.2091 22 22 20.2091 22 18C22 15.7909 20.2091 14 18 14C15.7909 14 14 15.7909 14 18C14 20.2091 15.7909 22 18 22Z" fill="#000080"/>
<path d="M18 21C19.6569 21 21 19.6569 21 18C21 16.3431 19.6569 15 18 15C16.3431 15 15 16.3431 15 18C15 19.6569 16.3431 21 18 21Z" fill="#EEEEEE"/>
<path d="M18 15L18.146 17.264L19.147 15.229L18.417 17.376L20.121 15.878L18.624 17.583L20.771 16.852L18.736 17.854L21 18L18.736 18.146L20.771 19.147L18.624 18.417L20.121 20.121L18.417 18.624L19.147 20.771L18.146 18.736L18 21L17.854 18.736L16.852 20.771L17.583 18.624L15.878 20.121L17.376 18.417L15.229 19.147L17.264 18.146L15 18L17.264 17.854L15.229 16.852L17.376 17.583L15.878 15.878L17.583 17.376L16.852 15.229L17.854 17.264L18 15Z" fill="#6666B3"/>
<path d="M18 19C18.5523 19 19 18.5523 19 18C19 17.4477 18.5523 17 18 17C17.4477 17 17 17.4477 17 18C17 18.5523 17.4477 19 18 19Z" fill="#000080"/>
</g>
<path d="M55.744 15.484H55.68L54.816 17.26L52.528 21.484L50.24 17.26L49.376 15.484H49.312V23.5H47.312V12.332H49.696L52.56 17.788H52.624L55.456 12.332H57.744V23.5H55.744V15.484ZM66.3905 23.5C65.9425 23.5 65.5852 23.372 65.3185 23.116C65.0625 22.8493 64.9025 22.4973 64.8385 22.06H64.7425C64.6038 22.604 64.3212 23.0147 63.8945 23.292C63.4678 23.5587 62.9398 23.692 62.3105 23.692C61.4572 23.692 60.8012 23.468 60.3425 23.02C59.8838 22.572 59.6545 21.9747 59.6545 21.228C59.6545 20.364 59.9638 19.724 60.5825 19.308C61.2012 18.8813 62.0812 18.668 63.2225 18.668H64.6465V18.06C64.6465 17.5907 64.5238 17.228 64.2785 16.972C64.0332 16.716 63.6385 16.588 63.0945 16.588C62.6145 16.588 62.2252 16.6947 61.9265 16.908C61.6385 17.1107 61.3932 17.356 61.1905 17.644L59.9745 16.556C60.2838 16.076 60.6945 15.692 61.2065 15.404C61.7185 15.1053 62.3958 14.956 63.2385 14.956C64.3692 14.956 65.2278 15.212 65.8145 15.724C66.4012 16.236 66.6945 16.972 66.6945 17.932V21.868H67.5265V23.5H66.3905ZM62.9985 22.204C63.4572 22.204 63.8465 22.1027 64.1665 21.9C64.4865 21.6973 64.6465 21.3987 64.6465 21.004V19.9H63.3345C62.2678 19.9 61.7345 20.2413 61.7345 20.924V21.196C61.7345 21.5373 61.8412 21.7933 62.0545 21.964C62.2785 22.124 62.5932 22.204 62.9985 22.204ZM74.368 22.108H74.288C74.1387 22.588 73.856 22.972 73.44 23.26C73.024 23.548 72.5387 23.692 71.984 23.692C70.928 23.692 70.1173 23.3133 69.552 22.556C68.9973 21.7987 68.72 20.716 68.72 19.308C68.72 17.9107 68.9973 16.8387 69.552 16.092C70.1173 15.3347 70.928 14.956 71.984 14.956C72.5387 14.956 73.024 15.1 73.44 15.388C73.856 15.6653 74.1387 16.044 74.288 16.524H74.368V11.66H76.416V23.5H74.368V22.108ZM72.64 21.996C73.1307 21.996 73.5413 21.8787 73.872 21.644C74.2027 21.4093 74.368 21.0733 74.368 20.636V17.98C74.368 17.5747 74.2027 17.2493 73.872 17.004C73.5413 16.7587 73.1307 16.636 72.64 16.636C72.1067 16.636 71.6747 16.8173 71.344 17.18C71.024 17.532 70.864 18.0067 70.864 18.604V20.044C70.864 20.6413 71.024 21.116 71.344 21.468C71.6747 21.82 72.1067 21.996 72.64 21.996ZM82.1538 23.692C81.5351 23.692 80.9804 23.5907 80.4898 23.388C80.0098 23.1747 79.5991 22.8813 79.2578 22.508C78.9271 22.124 78.6711 21.6653 78.4898 21.132C78.3084 20.588 78.2178 19.98 78.2178 19.308C78.2178 18.6467 78.3031 18.0493 78.4738 17.516C78.6551 16.9827 78.9111 16.5293 79.2418 16.156C79.5724 15.772 79.9778 15.4787 80.4578 15.276C80.9378 15.0627 81.4818 14.956 82.0898 14.956C82.7404 14.956 83.3058 15.068 83.7858 15.292C84.2658 15.516 84.6604 15.82 84.9698 16.204C85.2791 16.588 85.5084 17.036 85.6578 17.548C85.8178 18.0493 85.8978 18.588 85.8978 19.164V19.836H80.3458V20.044C80.3458 20.652 80.5164 21.1427 80.8578 21.516C81.1991 21.8787 81.7058 22.06 82.3778 22.06C82.8898 22.06 83.3058 21.9533 83.6258 21.74C83.9564 21.5267 84.2498 21.2547 84.5058 20.924L85.6098 22.156C85.2684 22.636 84.7991 23.0147 84.2018 23.292C83.6151 23.5587 82.9324 23.692 82.1538 23.692ZM82.1218 16.492C81.5778 16.492 81.1458 16.6733 80.8258 17.036C80.5058 17.3987 80.3458 17.868 80.3458 18.444V18.572H83.7698V18.428C83.7698 17.852 83.6258 17.388 83.3378 17.036C83.0604 16.6733 82.6551 16.492 82.1218 16.492ZM92.5049 13.932C92.0782 13.932 91.7689 13.836 91.5769 13.644C91.3955 13.452 91.3049 13.2067 91.3049 12.908V12.588C91.3049 12.2893 91.3955 12.044 91.5769 11.852C91.7689 11.66 92.0782 11.564 92.5049 11.564C92.9209 11.564 93.2249 11.66 93.4169 11.852C93.6089 12.044 93.7049 12.2893 93.7049 12.588V12.908C93.7049 13.2067 93.6089 13.452 93.4169 13.644C93.2249 13.836 92.9209 13.932 92.5049 13.932ZM91.4809 15.148H93.5289V23.5H91.4809V15.148ZM95.9028 23.5V15.148H97.9508V16.54H98.0308C98.2014 16.092 98.4681 15.7187 98.8307 15.42C99.2041 15.1107 99.7161 14.956 100.367 14.956C101.231 14.956 101.892 15.2387 102.351 15.804C102.809 16.3693 103.039 17.1747 103.039 18.22V23.5H100.991V18.428C100.991 17.8307 100.884 17.3827 100.671 17.084C100.457 16.7853 100.105 16.636 99.6148 16.636C99.4014 16.636 99.1934 16.668 98.9908 16.732C98.7988 16.7853 98.6228 16.8707 98.4628 16.988C98.3134 17.0947 98.1908 17.2333 98.0948 17.404C97.9988 17.564 97.9508 17.756 97.9508 17.98V23.5H95.9028ZM108.754 23.5V21.804H110.226V14.028H108.754V12.332H113.826V14.028H112.338V21.804H113.826V23.5H108.754ZM115.856 23.5V15.148H117.904V16.54H117.984C118.155 16.092 118.421 15.7187 118.784 15.42C119.157 15.1107 119.669 14.956 120.32 14.956C121.184 14.956 121.845 15.2387 122.304 15.804C122.763 16.3693 122.992 17.1747 122.992 18.22V23.5H120.944V18.428C120.944 17.8307 120.837 17.3827 120.624 17.084C120.411 16.7853 120.059 16.636 119.568 16.636C119.355 16.636 119.147 16.668 118.944 16.732C118.752 16.7853 118.576 16.8707 118.416 16.988C118.267 17.0947 118.144 17.2333 118.048 17.404C117.952 17.564 117.904 17.756 117.904 17.98V23.5H115.856ZM130.446 22.108H130.366C130.217 22.588 129.934 22.972 129.518 23.26C129.102 23.548 128.617 23.692 128.062 23.692C127.006 23.692 126.195 23.3133 125.63 22.556C125.075 21.7987 124.798 20.716 124.798 19.308C124.798 17.9107 125.075 16.8387 125.63 16.092C126.195 15.3347 127.006 14.956 128.062 14.956C128.617 14.956 129.102 15.1 129.518 15.388C129.934 15.6653 130.217 16.044 130.366 16.524H130.446V11.66H132.494V23.5H130.446V22.108ZM128.718 21.996C129.209 21.996 129.619 21.8787 129.95 21.644C130.281 21.4093 130.446 21.0733 130.446 20.636V17.98C130.446 17.5747 130.281 17.2493 129.95 17.004C129.619 16.7587 129.209 16.636 128.718 16.636C128.185 16.636 127.753 16.8173 127.422 17.18C127.102 17.532 126.942 18.0067 126.942 18.604V20.044C126.942 20.6413 127.102 21.116 127.422 21.468C127.753 21.82 128.185 21.996 128.718 21.996ZM135.88 13.932C135.453 13.932 135.144 13.836 134.952 13.644C134.771 13.452 134.68 13.2067 134.68 12.908V12.588C134.68 12.2893 134.771 12.044 134.952 11.852C135.144 11.66 135.453 11.564 135.88 11.564C136.296 11.564 136.6 11.66 136.792 11.852C136.984 12.044 137.08 12.2893 137.08 12.588V12.908C137.08 13.2067 136.984 13.452 136.792 13.644C136.6 13.836 136.296 13.932 135.88 13.932ZM134.856 15.148H136.904V23.5H134.856V15.148ZM145.422 23.5C144.974 23.5 144.616 23.372 144.35 23.116C144.094 22.8493 143.934 22.4973 143.87 22.06H143.774C143.635 22.604 143.352 23.0147 142.926 23.292C142.499 23.5587 141.971 23.692 141.342 23.692C140.488 23.692 139.832 23.468 139.374 23.02C138.915 22.572 138.686 21.9747 138.686 21.228C138.686 20.364 138.995 19.724 139.614 19.308C140.232 18.8813 141.112 18.668 142.254 18.668H143.678V18.06C143.678 17.5907 143.555 17.228 143.31 16.972C143.064 16.716 142.67 16.588 142.126 16.588C141.646 16.588 141.256 16.6947 140.958 16.908C140.67 17.1107 140.424 17.356 140.222 17.644L139.006 16.556C139.315 16.076 139.726 15.692 140.238 15.404C140.75 15.1053 141.427 14.956 142.27 14.956C143.4 14.956 144.259 15.212 144.846 15.724C145.432 16.236 145.726 16.972 145.726 17.932V21.868H146.558V23.5H145.422ZM142.03 22.204C142.488 22.204 142.878 22.1027 143.198 21.9C143.518 21.6973 143.678 21.3987 143.678 21.004V19.9H142.366C141.299 19.9 140.766 20.2413 140.766 20.924V21.196C140.766 21.5373 140.872 21.7933 141.086 21.964C141.31 22.124 141.624 22.204 142.03 22.204Z" fill="black"/>
<path d="M1 46H55" stroke="#98A2B3" stroke-width="2" stroke-linecap="round"/>
<circle cx="74" cy="46" r="5" stroke="#98A2B3" stroke-width="2"/>
<path d="M93 46H147" stroke="#98A2B3" stroke-width="2" stroke-linecap="round"/>
<defs>
<clipPath id="clip0_4_608">
<rect width="36" height="36" fill="white"/>
</clipPath>
</defs>
</svg>
