<svg width="24" height="25" viewBox="0 0 24 25" fill="none" xmlns="http://www.w3.org/2000/svg">
<g clip-path="url(#clip0_374_5150)">
<path d="M9 10.5C11.2091 10.5 13 8.70914 13 6.5C13 4.29086 11.2091 2.5 9 2.5C6.79086 2.5 5 4.29086 5 6.5C5 8.70914 6.79086 10.5 9 10.5Z" stroke="white" stroke-width="2"/>
<path opacity="0.5" d="M12.5 4.8411C13.0375 4.03275 13.9565 3.5 15 3.5C16.6569 3.5 18 4.84315 18 6.5C18 8.15685 16.6569 9.5 15 9.5C13.9565 9.5 13.0375 8.96725 12.5 8.1589" stroke="white" stroke-width="2"/>
<path d="M9 21.5C12.866 21.5 16 19.7091 16 17.5C16 15.2909 12.866 13.5 9 13.5C5.13401 13.5 2 15.2909 2 17.5C2 19.7091 5.13401 21.5 9 21.5Z" stroke="white" stroke-width="2"/>
<path opacity="0.5" d="M18 14.5C19.7542 14.8847 21 15.8589 21 17C21 18.0293 19.9863 18.9229 18.5 19.3704" stroke="white" stroke-width="2" stroke-linecap="round"/>
<circle cx="19.0526" cy="19.5526" r="4.55263" fill="#F38744" stroke="white"/>
<path d="M19.0527 17.342V21.7631" stroke="white" stroke-linecap="round" stroke-linejoin="round"/>
<path d="M16.8421 19.5527H21.2632" stroke="white" stroke-linecap="round" stroke-linejoin="round"/>
</g>
<defs>
<clipPath id="clip0_374_5150">
<rect width="24" height="24" fill="white" transform="translate(0 0.5)"/>
</clipPath>
</defs>
</svg>
