<svg width="25" height="24" viewBox="0 0 25 24" fill="none" xmlns="http://www.w3.org/2000/svg">
<path d="M13.6316 16.9211H7.94739" stroke="white" stroke-width="2" stroke-linecap="round"/>
<path d="M1 11.43C1 9.26207 1 8.17808 1.49187 7.27946C1.98375 6.38086 2.88237 5.82314 4.67961 4.70773L6.57434 3.5318C8.47416 2.35272 9.42409 1.76318 10.4737 1.76318C11.5233 1.76318 12.4732 2.35272 14.3731 3.5318L16.2678 4.70772C18.065 5.82314 18.9636 6.38086 19.4555 7.27946C19.9474 8.17808 19.9474 9.26207 19.9474 11.43V12.8711C19.9474 16.5666 19.9474 18.4144 18.8374 19.5624C17.7276 20.7106 15.9411 20.7106 12.3684 20.7106H8.57895C5.00619 20.7106 3.21983 20.7106 2.10991 19.5624C1 18.4144 1 16.5666 1 12.8711V11.43Z" stroke="white" stroke-width="2"/>
<circle cx="19.9473" cy="18.1842" r="4.55263" fill="#12B76A" stroke="white"/>
<path d="M19.9474 15.9736V20.3947" stroke="white" stroke-linecap="round" stroke-linejoin="round"/>
<path d="M17.7368 18.1843H22.1579" stroke="white" stroke-linecap="round" stroke-linejoin="round"/>
</svg>
