<svg width="40" height="40" viewBox="0 0 40 40" fill="none" xmlns="http://www.w3.org/2000/svg">
<path d="M13.4187 20.8188C12.4656 20.6531 11.525 20.5781 10.6 20.5781C9.1875 20.5781 7.81563 20.7563 6.51875 21.0625C4.39063 21.5688 2.45 22.5719 1.25 24.0719V38.75H20V27.625C20 23.7875 17.1312 21.4594 13.4187 20.8188Z" fill="url(#paint0_linear_374_5051)"/>
<path d="M10.4562 23.1625C9.24686 23.1625 8.26874 22.1844 8.26874 20.975V18.9688H12.6437V20.975C12.6437 22.1844 11.6625 23.1625 10.4562 23.1625Z" fill="#E59600"/>
<path d="M1.25 30V38.75H3.75V30H1.25Z" fill="url(#paint1_linear_374_5051)"/>
<path d="M16.0875 10.8562H4.82186C3.60624 10.8562 2.61249 11.9156 2.61249 13.2093C2.61249 14.5031 3.60624 15.5625 4.82186 15.5625H16.0875C17.3031 15.5625 18.2969 14.5031 18.2969 13.2093C18.2969 11.9156 17.3031 10.8562 16.0875 10.8562Z" fill="#E59600"/>
<path d="M10.4563 2.53442C6.86875 2.53442 3.54688 6.37192 3.54688 11.8907C3.54688 17.3813 6.96875 20.0969 10.4563 20.0969C13.9438 20.0969 17.3656 17.3813 17.3656 11.8907C17.3656 6.37192 14.0438 2.53442 10.4563 2.53442Z" fill="#FFCA28"/>
<path d="M12.1906 16.1062C11.5344 16.4968 9.38124 16.4968 8.72499 16.1062C8.34687 15.8812 7.96249 16.2249 8.11874 16.5687C8.27187 16.9062 9.44687 17.6874 10.4625 17.6874C11.4781 17.6874 12.6375 16.9062 12.7906 16.5687C12.95 16.2249 12.5687 15.8812 12.1906 16.1062Z" fill="#795548"/>
<path d="M11.25 14.4375C11.2294 14.4279 11.2071 14.4226 11.1844 14.4219H9.72499C9.70312 14.425 9.68124 14.4312 9.65937 14.4375C9.52812 14.4906 9.45311 14.6281 9.51874 14.775C9.58124 14.9219 9.87186 15.3312 10.4562 15.3312C11.0406 15.3312 11.3312 14.9219 11.3937 14.775C11.4562 14.6281 11.3844 14.4906 11.25 14.4375Z" fill="#E59600"/>
<path d="M7.06873 13.6063C7.62964 13.6063 8.08435 13.1347 8.08435 12.5531C8.08435 11.9715 7.62964 11.5 7.06873 11.5C6.50781 11.5 6.0531 11.9715 6.0531 12.5531C6.0531 13.1347 6.50781 13.6063 7.06873 13.6063Z" fill="#404040"/>
<path d="M13.8438 13.6063C14.4047 13.6063 14.8594 13.1347 14.8594 12.5531C14.8594 11.9715 14.4047 11.5 13.8438 11.5C13.2828 11.5 12.8281 11.9715 12.8281 12.5531C12.8281 13.1347 13.2828 13.6063 13.8438 13.6063Z" fill="#404040"/>
<path d="M5.50624 10.7844C5.50624 10.7844 6.06249 10.05 7.05936 10.05C8.05624 10.05 8.62499 10.7938 8.62499 10.7938C8.66502 10.8497 8.68626 10.9169 8.68566 10.9857C8.68506 11.0545 8.66265 11.1214 8.62166 11.1766C8.58066 11.2318 8.52319 11.2726 8.45752 11.2931C8.39186 11.3136 8.32138 11.3128 8.25624 11.2907C8.25624 11.2907 7.95311 11.1532 7.66874 11.0844C7.38436 11.0157 7.07186 10.9938 6.76249 11.0282C6.29374 11.0813 5.90936 11.2813 5.90936 11.2813C5.61249 11.4032 5.32499 11.0532 5.50624 10.7844Z" fill="#6D4C41"/>
<path d="M15.4062 10.7844C15.4062 10.7844 14.85 10.05 13.8531 10.05C12.8562 10.05 12.2875 10.7938 12.2875 10.7938C12.2475 10.8497 12.2262 10.9169 12.2268 10.9857C12.2274 11.0545 12.2498 11.1214 12.2908 11.1766C12.3318 11.2318 12.3893 11.2726 12.455 11.2931C12.5206 11.3136 12.5911 11.3128 12.6562 11.2907C12.6562 11.2907 12.9594 11.1532 13.2437 11.0844C13.5281 11.0157 13.8406 10.9938 14.15 11.0282C14.6187 11.0782 15 11.2813 15 11.2813C15.3 11.4032 15.5844 11.0532 15.4062 10.7844Z" fill="#6D4C41"/>
<path d="M10.4812 1.3125H10.4781H10.475C1.18125 1.3625 3.08437 11.9781 3.08437 11.9781C3.08437 11.9781 3.5 13.0719 3.69062 13.5562C3.71875 13.625 3.81875 13.6187 3.83437 13.5437C4.03437 12.6562 4.74687 9.50937 5.10625 8.55312C5.31875 7.99062 5.90312 7.6625 6.49687 7.76875C7.40625 7.93437 8.85937 8.1375 10.4594 8.1375H10.4969C12.0969 8.1375 13.5469 7.93437 14.4594 7.76875C15.0531 7.6625 15.6375 7.99062 15.85 8.55312C16.2094 9.50625 16.9187 12.6344 17.1187 13.5344C17.1344 13.6094 17.2375 13.6156 17.2656 13.5437L17.875 11.975C17.8719 11.9781 19.775 1.3625 10.4812 1.3125Z" fill="#543930"/>
<path d="M17.8719 11.9781C17.8719 11.9781 19.775 1.3625 10.4812 1.3125H10.4781H10.475C10.3312 1.3125 10.1875 1.31563 10.05 1.32188C9.77187 1.33438 9.50624 1.35625 9.24999 1.38438H9.24374C9.22499 1.3875 9.20937 1.39062 9.19062 1.39062C1.36249 2.37813 3.08437 11.9781 3.08437 11.9781L3.69374 13.55C3.72187 13.6187 3.82187 13.6125 3.83749 13.5406C4.03749 12.6438 4.74999 9.50937 5.10937 8.55625C5.32187 7.99375 5.90624 7.66563 6.49999 7.77188C7.40937 7.9375 8.86249 8.14062 10.4625 8.14062H10.5C12.1 8.14062 13.55 7.9375 14.4625 7.77188C15.0562 7.66563 15.6406 7.99375 15.8531 8.55625C16.2125 9.51562 16.9281 12.6656 17.125 13.55C17.1406 13.6219 17.2406 13.6312 17.2687 13.5594C17.4531 13.075 17.8719 11.9781 17.8719 11.9781Z" fill="url(#paint2_radial_374_5051)"/>
<path d="M29.2969 1.3125C20.8563 1.3125 20.925 9.11562 20.925 9.24062C20.925 14.2937 21.3125 21.4344 23.3344 24.2438C24.1375 25.3563 25.6875 25.4188 25.6875 25.4188L29.1813 25.4125L32.675 25.4188C32.675 25.4188 34.225 25.3563 35.0281 24.2438C37.05 21.4344 37.4375 14.2937 37.4375 9.24062C37.4344 9.11562 37.7375 1.3125 29.2969 1.3125Z" fill="#543930"/>
<path d="M29.2969 1.3125C20.8563 1.3125 20.925 9.11562 20.925 9.24062C20.925 14.2937 21.3125 21.4344 23.3344 24.2438C24.1375 25.3563 25.6875 25.4188 25.6875 25.4188L29.1813 25.4125L32.675 25.4188C32.675 25.4188 34.225 25.3563 35.0281 24.2438C37.05 21.4344 37.4375 14.2937 37.4375 9.24062C37.4344 9.11562 37.7375 1.3125 29.2969 1.3125Z" fill="url(#paint3_radial_374_5051)"/>
<path d="M33.4812 21.0625C32.1844 20.7563 30.8125 20.5781 29.4 20.5781C28.475 20.5781 27.5344 20.6531 26.5812 20.8188C22.8687 21.4594 20 23.7875 20 27.625V38.75H38.75V24.075C37.55 22.5719 35.6094 21.5688 33.4812 21.0625Z" fill="url(#paint4_linear_374_5051)"/>
<path d="M29.1813 23.175C27.9719 23.175 26.9938 22.1968 26.9938 20.9875V18.9812H31.3688V20.9875C31.3688 22.1968 30.3906 23.175 29.1813 23.175Z" fill="#E59600"/>
<path d="M36.25 30V38.75H38.75V30H36.25Z" fill="url(#paint5_linear_374_5051)"/>
<path d="M29.1812 3.70312C25.6312 3.70312 22.3438 6.34375 22.3438 11.9406C22.3438 16.4375 25.1281 19.0969 27.5531 19.9531C28.1312 20.1562 28.6875 20.2594 29.1844 20.2594C29.675 20.2594 30.2312 20.1562 30.8031 19.9563C33.2281 19.1031 36.0219 16.4406 36.0219 11.9406C36.0187 6.34062 32.7312 3.70312 29.1812 3.70312Z" fill="#FFCA28"/>
<path d="M30.8969 16.1063C30.2469 16.4938 28.1188 16.4938 27.4688 16.1063C27.0969 15.8844 26.7156 16.2251 26.8688 16.5626C27.0219 16.8969 28.1844 17.6688 29.1875 17.6688C30.1906 17.6688 31.3375 16.8969 31.4906 16.5626C31.6469 16.2219 31.2719 15.8844 30.8969 16.1063Z" fill="#795548"/>
<path d="M29.9688 14.4375C29.9477 14.4294 29.9256 14.4241 29.9031 14.4219H28.4594C28.4375 14.425 28.4156 14.4312 28.3938 14.4375C28.2625 14.4906 28.1906 14.625 28.2531 14.7687C28.3156 14.9125 28.6031 15.3187 29.1813 15.3187C29.7594 15.3187 30.0469 14.9125 30.1094 14.7687C30.1719 14.625 30.1 14.4906 29.9688 14.4375Z" fill="#E59600"/>
<path d="M25.8281 13.5812C26.3821 13.5812 26.8313 13.1153 26.8313 12.5406C26.8313 11.9659 26.3821 11.5 25.8281 11.5C25.2741 11.5 24.825 11.9659 24.825 12.5406C24.825 13.1153 25.2741 13.5812 25.8281 13.5812Z" fill="#404040"/>
<path d="M32.5344 13.5812C33.0884 13.5812 33.5375 13.1153 33.5375 12.5406C33.5375 11.9659 33.0884 11.5 32.5344 11.5C31.9804 11.5 31.5312 11.9659 31.5312 12.5406C31.5312 13.1153 31.9804 13.5812 32.5344 13.5812Z" fill="#404040"/>
<path d="M27.3219 10.6719C27.1313 10.4188 26.6875 10.05 25.8281 10.05C24.9688 10.05 24.525 10.4188 24.3344 10.6719C24.25 10.7844 24.2719 10.9125 24.3313 10.9907C24.3844 11.0625 24.5469 11.1313 24.725 11.0719C24.9031 11.0125 25.25 10.8313 25.8313 10.8282C26.4125 10.8313 26.7594 11.0125 26.9375 11.0719C27.1156 11.1313 27.275 11.0657 27.3313 10.9907C27.3844 10.9157 27.4063 10.7844 27.3219 10.6719Z" fill="#6D4C41"/>
<path d="M34.0281 10.6719C33.8375 10.4188 33.3937 10.05 32.5344 10.05C31.675 10.05 31.2312 10.4188 31.0406 10.6719C30.9562 10.7844 30.9781 10.9125 31.0375 10.9907C31.0906 11.0625 31.2531 11.1313 31.4312 11.0719C31.6094 11.0125 31.9562 10.8313 32.5375 10.8282C33.1187 10.8313 33.4656 11.0125 33.6437 11.0719C33.8219 11.1313 33.9812 11.0657 34.0375 10.9907C34.0906 10.9157 34.1125 10.7844 34.0281 10.6719Z" fill="#6D4C41"/>
<path d="M29.2969 1.3125C20.8563 1.3125 20.925 9.11562 20.925 9.24062C20.925 10.8375 20.9625 12.6406 21.0813 14.4531L23.5063 19.3062C23.5063 19.3062 23.0875 15.5031 23.0406 12.925C23.0344 12.5938 22.9781 11.7625 23.1375 11.0375C23.3844 10.425 23.7094 9.95 24.1281 9.85625C28.7281 8.82188 31.3344 6.38125 31.3344 6.38125C32.0125 7.85938 34.1281 9.30312 34.8906 9.85C35.1063 10.0063 35.2688 10.5094 35.3906 11.1344C35.4563 11.7812 35.4313 12.4906 35.425 12.9062L34.7969 19.2938L37.2813 14.4562C37.2813 14.4469 37.2844 14.4344 37.2875 14.425C37.4031 12.625 37.4406 10.8313 37.4406 9.24375C37.4344 9.11563 37.7375 1.3125 29.2969 1.3125Z" fill="#543930"/>
<path d="M29.2969 1.3125C20.8563 1.3125 20.925 9.11562 20.925 9.24062C20.925 10.8375 20.9625 12.6406 21.0813 14.4531L22.4625 14.45C22.45 13.85 22.8719 10.1344 24.125 9.85313C28.725 8.81875 31.3313 6.37812 31.3313 6.37812C32.0094 7.85625 34.125 9.3 34.8875 9.84688C35.5125 10.2969 35.7031 13.6656 35.6906 14.4531H37.275C37.275 14.4437 37.2781 14.4313 37.2813 14.4219C37.3969 12.6219 37.4344 10.8281 37.4344 9.24062C37.4344 9.11562 37.7375 1.3125 29.2969 1.3125Z" fill="url(#paint6_radial_374_5051)"/>
<path opacity="0.4" d="M20.0062 27.625C20.0062 23.7875 16.9844 21.4594 13.2719 20.8188C12.6969 20.7188 12.1875 20.6563 11.5625 20.6188V38.75H28.4375V20.6094C27.8125 20.6437 27.2094 20.7125 26.5938 20.8188C22.8812 21.4594 20.0062 23.7875 20.0062 27.625Z" fill="url(#paint7_radial_374_5051)"/>
<path d="M26.7406 38.1187C26.7406 35.0437 22.8312 34.0125 21.4687 34.0125H18.5375C17.1781 34.0125 13.2625 35.0437 13.2625 38.1187C13.2625 38.1187 13.2594 38.3656 13.2531 38.75H26.7469L26.7406 38.1187Z" fill="#B2EBF2"/>
<path d="M20 36.3438C19.6113 36.3438 19.2385 36.1894 18.9636 35.9145C18.6888 35.6397 18.5344 35.2669 18.5344 34.8782V33.7532H21.4687V34.8782C21.4675 35.267 21.3123 35.6396 21.037 35.9143C20.7617 36.1889 20.3889 36.3434 20 36.3438Z" fill="#E59600"/>
<path d="M24.6063 27.8782H15.3938C14.4 27.8782 13.5875 28.6594 13.5875 29.6157C13.5875 30.5719 14.4 31.3532 15.3938 31.3532H24.6032C25.5969 31.3532 26.4094 30.5719 26.4094 29.6157C26.4094 28.6594 25.6 27.8782 24.6063 27.8782Z" fill="#E59600"/>
<path d="M20 20.7095C17.0844 20.7095 14.3875 23.772 14.3875 28.1782C14.3875 32.5595 17.1688 34.7282 20 34.7282C22.8313 34.7282 25.6125 32.5626 25.6125 28.1782C25.6125 23.7688 22.9156 20.7095 20 20.7095Z" fill="#FFCA28"/>
<path d="M21.35 31.5281C20.8375 31.8312 19.1625 31.8312 18.65 31.5281C18.3563 31.3531 18.0563 31.6219 18.1781 31.8875C18.2969 32.15 19.2125 32.7594 20.0031 32.7594C20.7938 32.7594 21.6969 32.15 21.8156 31.8875C21.9406 31.6187 21.6438 31.3531 21.35 31.5281Z" fill="#795548"/>
<path d="M20.6188 30.2249C20.602 30.2175 20.584 30.2132 20.5656 30.2124H19.4313C19.4125 30.2155 19.3969 30.2187 19.3781 30.2249C19.275 30.2655 19.2188 30.3718 19.2688 30.4874C19.3188 30.5999 19.5438 30.9187 20 30.9187C20.4563 30.9187 20.6813 30.5999 20.7313 30.4874C20.7781 30.3718 20.7219 30.2655 20.6188 30.2249Z" fill="#E59600"/>
<path d="M17.3313 30.2156C17.7679 30.2156 18.1219 29.8491 18.1219 29.3969C18.1219 28.9447 17.7679 28.5781 17.3313 28.5781C16.8946 28.5781 16.5406 28.9447 16.5406 29.3969C16.5406 29.8491 16.8946 30.2156 17.3313 30.2156Z" fill="#404040"/>
<path d="M22.6688 30.2156C23.1054 30.2156 23.4594 29.8491 23.4594 29.3969C23.4594 28.9447 23.1054 28.5781 22.6688 28.5781C22.2321 28.5781 21.8782 28.9447 21.8782 29.3969C21.8782 29.8491 22.2321 30.2156 22.6688 30.2156Z" fill="#404040"/>
<path d="M16.0937 27.9406C16.125 27.9 16.1344 27.875 16.1906 27.8187C16.3156 27.6875 16.5594 27.5312 16.7969 27.45C17.025 27.3718 17.1312 27.3718 17.3031 27.3718C17.5687 27.3718 17.7312 27.4281 17.8094 27.45C17.9187 27.4875 18.0219 27.5375 18.125 27.5937C18.2969 27.6968 18.6687 27.95 18.5562 28.1781C18.4312 28.4312 18.2406 28.3375 18.0687 28.2718C17.9937 28.25 17.6562 28.1156 17.3 28.1156C17.1062 28.1156 17.025 28.1375 16.975 28.1437C16.7469 28.1812 16.575 28.2531 16.5437 28.2625C16.425 28.3093 16.3406 28.3781 16.2062 28.325C16.0625 28.2625 16.0031 28.075 16.0937 27.9406Z" fill="#6D4C41"/>
<path d="M23.9062 27.9406C23.875 27.9 23.8656 27.875 23.8094 27.8187C23.6875 27.6875 23.4406 27.5312 23.2031 27.45C22.975 27.3718 22.8687 27.3718 22.6969 27.3718C22.4312 27.3718 22.2687 27.4281 22.1906 27.45C22.0812 27.4875 21.9781 27.5375 21.875 27.5937C21.7031 27.6968 21.3312 27.95 21.4437 28.1781C21.5687 28.4312 21.7594 28.3375 21.9312 28.2718C22.0062 28.25 22.3437 28.1156 22.7 28.1156C22.8937 28.1156 22.975 28.1375 23.025 28.1437C23.2531 28.1812 23.425 28.2531 23.4562 28.2625C23.575 28.3093 23.6594 28.3781 23.7906 28.325C23.9375 28.2625 23.9969 28.075 23.9062 27.9406Z" fill="#6D4C41"/>
<path d="M20.0344 20.05C13.8062 20.05 13.3719 25.1375 13.625 27.3625C13.8469 29.3282 14.8719 29.8125 14.8719 29.8125C14.8719 29.8125 14.6687 28.0969 14.9969 26.8532C15.2562 25.8657 15.8719 25.1344 15.8719 25.1344C15.8719 25.1344 16.9969 26.1094 19.0906 26.7438C20.1 27.05 21.3937 26.8969 21.3937 26.8969L20.6687 25.6157C20.6687 25.6157 21.8562 26.4875 22.5937 26.6532C23.5406 26.8657 24.2344 26.775 24.2344 26.775L23.8875 25.4219C23.8875 25.4219 24.4906 25.8157 24.9406 26.8938C25.3906 27.9719 25.1125 29.8125 25.1125 29.8125C25.1125 29.8125 26.1937 29.3313 26.3687 27.3625C26.5844 24.8969 26.2344 20.05 20.0344 20.05Z" fill="#543930"/>
<path d="M20.0344 20.05C13.8062 20.05 13.3719 25.1375 13.625 27.3625C13.8469 29.3282 14.8719 29.8125 14.8719 29.8125C14.8719 29.8125 14.6687 28.0969 14.9969 26.8532C15.2562 25.8657 15.8719 25.1344 15.8719 25.1344C15.8719 25.1344 16.9969 26.1094 19.0906 26.7438C20.1 27.05 21.3937 26.8969 21.3937 26.8969L20.6687 25.6157C20.6687 25.6157 21.8562 26.4875 22.5937 26.6532C23.5406 26.8657 24.2344 26.775 24.2344 26.775L23.8875 25.4219C23.8875 25.4219 24.4906 25.8157 24.9406 26.8938C25.3906 27.9719 25.1125 29.8125 25.1125 29.8125C25.1125 29.8125 26.1937 29.3313 26.3687 27.3625C26.5844 24.8969 26.2344 20.05 20.0344 20.05Z" fill="url(#paint8_radial_374_5051)"/>
<defs>
<linearGradient id="paint0_linear_374_5051" x1="10.625" y1="38.5303" x2="10.625" y2="21.1781" gradientUnits="userSpaceOnUse">
<stop stop-color="#009E89"/>
<stop offset="1" stop-color="#00BFA5"/>
</linearGradient>
<linearGradient id="paint1_linear_374_5051" x1="2.69781" y1="38.9575" x2="2.33125" y2="30.4622" gradientUnits="userSpaceOnUse">
<stop offset="0.604" stop-color="#FFCA28"/>
<stop offset="1" stop-color="#FFB300"/>
</linearGradient>
<radialGradient id="paint2_radial_374_5051" cx="0" cy="0" r="1" gradientUnits="userSpaceOnUse" gradientTransform="translate(10.4778 10.1211) scale(7.79187 8.79079)">
<stop offset="0.794" stop-color="#6D4C41" stop-opacity="0"/>
<stop offset="1" stop-color="#6D4C41"/>
</radialGradient>
<radialGradient id="paint3_radial_374_5051" cx="0" cy="0" r="1" gradientUnits="userSpaceOnUse" gradientTransform="translate(29.1809 12.7467) scale(9.78219 11.6418)">
<stop offset="0.794" stop-color="#6D4C41" stop-opacity="0"/>
<stop offset="1" stop-color="#6D4C41"/>
</radialGradient>
<linearGradient id="paint4_linear_374_5051" x1="29.375" y1="38.5303" x2="29.375" y2="21.0731" gradientUnits="userSpaceOnUse">
<stop stop-color="#530EEB"/>
<stop offset="1" stop-color="#651FFF"/>
</linearGradient>
<linearGradient id="paint5_linear_374_5051" x1="37.6325" y1="37.4506" x2="37.2662" y2="28.955" gradientUnits="userSpaceOnUse">
<stop offset="0.604" stop-color="#FFCA28"/>
<stop offset="1" stop-color="#FFB300"/>
</linearGradient>
<radialGradient id="paint6_radial_374_5051" cx="0" cy="0" r="1" gradientUnits="userSpaceOnUse" gradientTransform="translate(29.25 13.5762) scale(10.2463 12.4338)">
<stop offset="0.794" stop-color="#6D4C41" stop-opacity="0"/>
<stop offset="1" stop-color="#6D4C41"/>
</radialGradient>
<radialGradient id="paint7_radial_374_5051" cx="0" cy="0" r="1" gradientUnits="userSpaceOnUse" gradientTransform="translate(20 29.6796) scale(8.47 12.3391)">
<stop offset="0.594" stop-color="#212121"/>
<stop offset="1" stop-color="#616161" stop-opacity="0.05"/>
</radialGradient>
<radialGradient id="paint8_radial_374_5051" cx="0" cy="0" r="1" gradientUnits="userSpaceOnUse" gradientTransform="translate(19.9762 26.8804) rotate(90) scale(8.03363 7.00941)">
<stop offset="0.794" stop-color="#6D4C41" stop-opacity="0"/>
<stop offset="1" stop-color="#6D4C41"/>
</radialGradient>
</defs>
</svg>
