 <svg
      width="61"
      height="53"
      viewBox="0 0 61 53"
      fill="none"
      xmlns="http://www.w3.org/2000/svg"
    >
      <path
        d="M32.5998 2.25263C30.7171 0.937819 28.5088 0.166809 26.2169 0.0241529C23.925 -0.118503 21.6381 0.372702 19.6069 1.44391C17.5757 2.51511 15.8787 4.12494 14.702 6.09687C13.5253 8.0688 12.9144 10.3267 12.9361 12.6229L19.1881 12.5637C19.1772 11.4156 19.4827 10.2867 20.071 9.30069C20.6594 8.31472 21.5079 7.5098 22.5235 6.9742C23.5391 6.4386 24.6825 6.193 25.8285 6.26433C26.9744 6.33565 28.0786 6.72116 29.0199 7.37857L32.5998 2.25263Z"
        fill="white"
      />
      <ellipse
        cx="6.82938"
        cy="6.82891"
        rx="6.82938"
        ry="6.82891"
        transform="matrix(1 0 0 -1 23.8948 18.4963)"
        fill="white"
      />
      <path
        d="M49.2949 12.5045C49.2949 9.1881 47.9775 6.00753 45.6324 3.66248C43.2874 1.31743 40.1068 2.50381e-07 36.7904 0C33.474 -2.50381e-07 30.2934 1.31743 27.9484 3.66248C25.6033 6.00753 24.2859 9.1881 24.2859 12.5045L30.5381 12.5045C30.5381 10.8463 31.1969 9.25601 32.3694 8.08349C33.5419 6.91097 35.1322 6.25225 36.7904 6.25225C38.4486 6.25225 40.0389 6.91097 41.2114 8.08349C42.3839 9.25602 43.0426 10.8463 43.0426 12.5045H49.2949Z"
        fill="white"
      />
      <path
        d="M48.717 36.4492C50.797 35.4762 52.5689 33.9492 53.8384 32.0357C55.1079 30.1222 55.826 27.896 55.9139 25.6014C56.0018 23.3067 55.4561 21.0322 54.3367 19.0272C53.2173 17.0221 51.5674 15.3641 49.568 14.2348L46.4932 19.6788C47.493 20.2434 48.3179 21.0724 48.8776 22.075C49.4373 23.0775 49.7102 24.2147 49.6662 25.3621C49.6223 26.5094 49.2632 27.6224 48.6285 28.5792C47.9937 29.536 47.1078 30.2995 46.0678 30.786L48.717 36.4492Z"
        fill="white"
      />
      <ellipse
        cx="6.82938"
        cy="6.82891"
        rx="6.82938"
        ry="6.82891"
        transform="matrix(-0.5 0.866025 0.866025 0.5 39.0022 20.7886)"
        fill="white"
      />
      <path
        d="M31.4911 45.7816C34.3632 47.4398 37.7764 47.8891 40.9798 47.0308C44.1832 46.1724 46.9144 44.0767 48.5726 41.2046C50.2308 38.3325 50.6801 34.9193 49.8218 31.7159C48.9634 28.5125 46.8677 25.7813 43.9956 24.1231L40.8695 29.5377C42.3055 30.3668 43.3534 31.7324 43.7826 33.3341C44.2117 34.9358 43.9871 36.6424 43.158 38.0785C42.3289 39.5145 40.9633 40.5624 39.3616 40.9916C37.7599 41.4207 36.0533 41.1961 34.6172 40.367L31.4911 45.7816Z"
        fill="white"
      />
      <path
        d="M10.7984 33.131C10.6011 35.4188 11.0375 37.7168 12.0599 39.773C13.0823 41.8292 14.6512 43.5641 16.5945 44.7875C18.5378 46.011 20.7804 46.6757 23.0765 46.7088C25.3726 46.7419 27.6334 46.1421 29.6112 44.9751L26.4339 39.5903C25.445 40.1738 24.3146 40.4737 23.1666 40.4572C22.0185 40.4406 20.8972 40.1083 19.9256 39.4966C18.9539 38.8848 18.1695 38.0174 17.6583 36.9893C17.1471 35.9612 16.9289 34.8122 17.0275 33.6683L10.7984 33.131Z"
        fill="white"
      />
      <ellipse
        cx="6.82938"
        cy="6.82891"
        rx="6.82938"
        ry="6.82891"
        transform="matrix(-0.5 -0.866025 -0.866025 0.5 29.2185 32.548)"
        fill="white"
      />
      <path
        d="M11.3294 13.5468C8.45727 15.205 6.36153 17.9362 5.50318 21.1396C4.64484 24.343 5.09419 27.7561 6.75239 30.6282C8.41059 33.5003 11.1418 35.5961 14.3452 36.4544C17.5486 37.3127 20.9618 36.8634 23.8339 35.2052L20.7077 29.7906C19.2717 30.6197 17.5651 30.8444 15.9634 30.4152C14.3617 29.986 12.9961 28.9381 12.167 27.5021C11.3379 26.0661 11.1132 24.3595 11.5424 22.7578C11.9716 21.1561 13.0194 19.7905 14.4555 18.9614L11.3294 13.5468Z"
        fill="white"
      />
    </svg>