<svg width="40" height="40" viewBox="0 0 40 40" fill="none" xmlns="http://www.w3.org/2000/svg">
<g id="tuscany-plaza_svgrepo.com" clip-path="url(#clip0_374_5014)">
<g id="Group">
<path id="Vector" d="M21.3809 8.65309H19.4936C19.4936 7.31996 18.4129 6.23926 17.0798 6.23926H12.897C11.5639 6.23926 10.4832 7.31996 10.4832 8.65309C10.4832 9.98621 11.5639 11.0669 12.897 11.0669H21.3809C22.0474 11.0669 22.5877 10.5266 22.5877 9.86004C22.5877 9.19348 22.0474 8.65309 21.3809 8.65309Z" fill="#54C7D8"/>
<path id="Vector_2" d="M37.3028 10.7429H33.1201C31.787 10.7429 30.7063 11.8236 30.7063 13.1567H28.819C28.1524 13.1567 27.6121 13.6971 27.6121 14.3636C27.6121 15.0302 28.1524 15.5705 28.819 15.5705H37.3028C38.636 15.5705 39.7167 14.4898 39.7167 13.1567C39.7167 11.8236 38.636 10.7429 37.3028 10.7429Z" fill="#54C7D8"/>
</g>
<path id="Vector_3" d="M14.3181 21.7798C14.3181 23.8976 12.6013 25.6145 10.4834 25.6145C8.36548 25.6145 6.64868 23.8977 6.64868 21.7798C6.64868 19.6619 8.36548 5.06519 10.4834 5.06519C12.6013 5.06519 14.3181 19.662 14.3181 21.7798Z" fill="#006539"/>
<path id="Vector_4" opacity="0.15" d="M11.2942 24.8035C9.17642 24.8035 7.45955 23.0867 7.45955 20.9689C7.45955 19.1539 8.72048 8.17417 10.4141 5.07104C8.32814 5.383 6.64853 19.6851 6.64853 21.7799C6.64853 23.8977 8.36533 25.6146 10.4832 25.6146C11.749 25.6146 12.8712 25.001 13.5695 24.0553C12.9331 24.5253 12.1463 24.8035 11.2942 24.8035Z" fill="black"/>
<path id="Vector_5" d="M6.64884 24.6284H4.67587V29.4172H6.64884V24.6284Z" fill="#C39774"/>
<path id="Vector_6" opacity="0.15" d="M4.67569 24.6279V26.3262C4.99053 26.4098 5.321 26.4549 5.66217 26.4549C6.00335 26.4549 6.33381 26.4098 6.64866 26.3262V24.6279H4.67569Z" fill="black"/>
<path id="Vector_7" d="M9.49689 21.7797C9.49689 23.8975 7.78009 25.6144 5.6622 25.6144C3.54431 25.6144 1.82751 23.8976 1.82751 21.7797C1.82751 19.6618 3.54439 5.06519 5.66228 5.06519C7.78001 5.06519 9.49689 19.6619 9.49689 21.7797Z" fill="#00A155"/>
<path id="Vector_8" opacity="0.15" d="M6.47313 24.8035C4.35531 24.8035 2.63844 23.0867 2.63844 20.9689C2.63844 19.1539 3.89938 8.17417 5.59297 5.07104C3.50703 5.383 1.82742 19.6851 1.82742 21.7799C1.82742 23.8977 3.54422 25.6146 5.66211 25.6146C6.92789 25.6146 8.05008 25.001 8.74844 24.0553C8.11195 24.5253 7.32508 24.8035 6.47313 24.8035Z" fill="black"/>
<path id="Vector_9" d="M27.4699 21.8191H9.39658V29.345H27.4699V21.8191Z" fill="#B7B9BC"/>
<path id="Vector_10" d="M21.4692 25.4631H20.1207C19.9758 25.4631 19.8584 25.3457 19.8584 25.2008V23.8522C19.8584 23.7073 19.9758 23.5898 20.1207 23.5898H21.4693C21.6142 23.5898 21.7317 23.7073 21.7317 23.8522V25.2008C21.7316 25.3456 21.6141 25.4631 21.4692 25.4631Z" fill="white"/>
<path id="Vector_11" opacity="0.15" d="M9.39664 21.8191V29.3453H10.4833V22.9578H27.4694V21.8191H9.39664Z" fill="black"/>
<path id="Vector_12" d="M25.3497 18.0327H11.5165C11.2999 18.0327 11.0913 18.1142 10.9322 18.261L7.83485 21.1169C7.56399 21.3667 7.74071 21.819 8.10907 21.819H28.757C29.1255 21.819 29.3021 21.3666 29.0313 21.1169L25.9339 18.261C25.7749 18.1142 25.5662 18.0327 25.3497 18.0327Z" fill="#DE2A4E"/>
<path id="Vector_13" opacity="0.15" d="M26.925 19.1748H9.94109L8.53867 20.4679H28.3273L26.925 19.1748Z" fill="black"/>
<path id="Vector_14" opacity="0.15" d="M29.144 21.295H9.45556C9.08712 21.295 8.91048 20.8426 9.18126 20.5929L11.9578 18.0327H11.5165C11.2999 18.0327 11.0913 18.1142 10.9322 18.261L7.83485 21.1169C7.56399 21.3667 7.74071 21.819 8.10907 21.819H28.757C29.0482 21.819 29.2186 21.5368 29.144 21.295Z" fill="black"/>
<path id="Vector_15" d="M18.3788 29.3452H15.4023V25.9642C15.4023 25.7532 15.5733 25.5823 15.7842 25.5823H17.9969C18.2078 25.5823 18.3788 25.7532 18.3788 25.9642L18.3788 29.3452Z" fill="#6A7379"/>
<g id="Group_2">
<path id="Vector_16" d="M25.0989 25.4631H23.7503C23.6054 25.4631 23.488 25.3457 23.488 25.2008V23.8522C23.488 23.7073 23.6054 23.5898 23.7503 23.5898H25.0989C25.2438 23.5898 25.3613 23.7073 25.3613 23.8522V25.2008C25.3612 25.3456 25.2437 25.4631 25.0989 25.4631Z" fill="white"/>
<path id="Vector_17" d="M11.7673 25.4631H13.1159C13.2608 25.4631 13.3782 25.3457 13.3782 25.2008V23.8522C13.3782 23.7073 13.2608 23.5898 13.1159 23.5898H11.7673C11.6223 23.5898 11.5049 23.7073 11.5049 23.8522V25.2008C11.5049 25.3456 11.6224 25.4631 11.7673 25.4631Z" fill="white"/>
</g>
<path id="Vector_18" d="M23.0287 15.5708H20.5664V18.0331H23.0287V15.5708Z" fill="#C39774"/>
<path id="Vector_19" opacity="0.15" d="M23.0287 15.5708H20.5664V16.3392H23.0287V15.5708Z" fill="black"/>
<path id="Vector_20" d="M23.4248 15.5704H20.1707C19.9982 15.5704 19.8584 15.4306 19.8584 15.258V14.0121C19.8584 13.8396 19.9982 13.6997 20.1707 13.6997H23.4248C23.5973 13.6997 23.7372 13.8396 23.7372 14.0121V15.258C23.7371 15.4306 23.5973 15.5704 23.4248 15.5704Z" fill="#6A7379"/>
<path id="Vector_21" opacity="0.15" d="M20.5731 15.1681C20.4006 15.1681 20.2606 15.0282 20.2606 14.8556V13.6997H20.1707C19.9982 13.6997 19.8584 13.8396 19.8584 14.0121V15.258C19.8584 15.4305 19.9982 15.5704 20.1707 15.5704H23.4248C23.5973 15.5704 23.7372 15.4306 23.7372 15.258V15.1681H20.5731Z" fill="black"/>
<path id="Vector_22" d="M33.2773 25.0845H31.3043V29.8733H33.2773V25.0845Z" fill="#C39774"/>
<path id="Vector_23" opacity="0.15" d="M31.3041 25.0845V26.7828C31.619 26.8663 31.9495 26.9114 32.2906 26.9114C32.6317 26.9114 32.9623 26.8663 33.2771 26.7828V25.0845H31.3041Z" fill="black"/>
<path id="Vector_24" d="M36.1252 22.2361C36.1252 24.3539 34.4085 26.0708 32.2906 26.0708C30.1727 26.0708 28.4559 24.354 28.4559 22.2361C28.4559 20.1182 30.1727 5.52148 32.2906 5.52148C34.4085 5.52148 36.1252 20.1182 36.1252 22.2361Z" fill="#006539"/>
<path id="Vector_25" opacity="0.15" d="M33.1016 25.2598C30.9837 25.2598 29.2669 23.543 29.2669 21.4252C29.2669 19.6102 30.5278 8.63047 32.2215 5.52734C30.1355 5.8393 28.4559 20.1414 28.4559 22.2362C28.4559 24.354 30.1727 26.0709 32.2906 26.0709C33.5564 26.0709 34.6786 25.4573 35.3769 24.5116C34.7403 24.9816 33.9535 25.2598 33.1016 25.2598Z" fill="black"/>
<path id="Vector_26" d="M29.4428 24.5569H27.4698V29.3457H29.4428V24.5569Z" fill="#C39774"/>
<path id="Vector_27" opacity="0.15" d="M27.4695 24.5569V26.2552C27.7843 26.3388 28.1148 26.3838 28.4559 26.3838C28.797 26.3838 29.1276 26.3388 29.4424 26.2552V24.5569H27.4695Z" fill="black"/>
<path id="Vector_28" d="M32.2906 21.7087C32.2906 23.8265 30.5738 25.5434 28.4559 25.5434C26.338 25.5434 24.6212 23.8266 24.6212 21.7087C24.6212 19.5908 26.338 4.99414 28.4559 4.99414C30.5738 4.99406 32.2906 19.5908 32.2906 21.7087Z" fill="#00A155"/>
<path id="Vector_29" opacity="0.15" d="M29.2668 24.7323C27.149 24.7323 25.4321 23.0155 25.4321 20.8976C25.4321 19.0826 26.693 8.10288 28.3866 4.99976C26.3007 5.31171 24.6211 19.6138 24.6211 21.7086C24.6211 23.8264 26.3379 25.5433 28.4558 25.5433C29.7216 25.5433 30.8438 24.9297 31.5421 23.9841C30.9057 24.454 30.1189 24.7323 29.2668 24.7323Z" fill="black"/>
<path id="Vector_30" d="M40 30.1362C40 29.6953 39.6519 29.3332 39.2113 29.3166C35.8593 29.1896 27.4233 28.8279 20 28.8279C12.5767 28.8279 4.14078 29.1896 0.788672 29.3166C0.348047 29.3333 0 29.6953 0 30.1362V34.0696C0 34.5868 0.419219 35.006 0.936406 35.006H39.0637C39.5809 35.006 40.0001 34.5868 40.0001 34.0696L40 30.1362Z" fill="#006539"/>
</g>
<defs>
<clipPath id="clip0_374_5014">
<rect width="40" height="40" fill="white"/>
</clipPath>
</defs>
</svg>
