<svg width="40" height="40" viewBox="0 0 40 40" fill="none" xmlns="http://www.w3.org/2000/svg">
<g clip-path="url(#clip0_374_4999)">
<path d="M12.117 12.1883C12.117 14.9881 10.1952 17.2579 7.82457 17.2579C5.45417 17.2579 3.53278 14.9881 3.53278 12.1883C3.53278 9.38874 5.45417 7.11914 7.82457 7.11914C10.1952 7.11914 12.117 9.38874 12.117 12.1883Z" fill="#6941C6"/>
<path d="M12.7166 21.1282C13.0266 20.9392 13.3696 20.816 13.7248 20.7572C13.0036 19.7396 12.4926 18.648 12.1974 17.3416C12.1166 16.8642 11.463 16.8082 10.977 17.2042C10.0678 17.9454 9.0072 18.4414 7.824 18.4414C6.618 18.4414 5.5086 17.9616 4.6192 17.1586C4.3354 16.9022 3.9172 16.8634 3.5906 17.0628C1.902 18.0944 0.6238 19.7316 0.0662001 21.6762C-0.0835999 22.1972 0.0216022 22.7602 0.348402 23.1938C0.675602 23.627 1.1868 23.8824 1.7296 23.8824H9.4632C10.389 22.8144 11.4816 21.882 12.7166 21.1282Z" fill="#6941C6"/>
<path d="M27.8832 12.1883C27.8832 14.9881 29.8048 17.2579 32.1754 17.2579C34.5462 17.2579 36.4674 14.9881 36.4674 12.1883C36.4674 9.38874 34.5462 7.11914 32.1754 7.11914C29.8048 7.11914 27.8832 9.38874 27.8832 12.1883Z" fill="#6941C6"/>
<path d="M27.283 21.1282C26.973 20.9392 26.6298 20.816 26.2748 20.7572C26.996 19.7396 27.507 18.648 27.8022 17.3416C27.8832 16.8642 28.5368 16.8082 29.0228 17.2042C29.932 17.9454 30.9924 18.4414 32.1756 18.4414C33.3814 18.4414 34.491 17.9616 35.3806 17.1586C35.6644 16.9022 36.0824 16.8634 36.409 17.0628C38.0978 18.0944 39.3762 19.7316 39.9334 21.6762C40.083 22.1972 39.978 22.7602 39.6514 23.1938C39.324 23.627 38.813 23.8824 38.2704 23.8824H30.5364C29.6106 22.8144 28.5182 21.882 27.283 21.1282Z" fill="#6941C6"/>
<path d="M31.695 29.4902C30.8554 26.5594 28.951 24.0812 26.4298 22.4918C25.9324 22.1786 25.2868 22.2292 24.8456 22.618C23.4924 23.8098 21.818 24.5192 20 24.5192C18.1462 24.5192 16.4418 23.782 15.0748 22.5482C14.6384 22.154 13.9962 22.0946 13.4944 22.4014C10.899 23.9862 8.93458 26.5022 8.07798 29.4904C7.84778 30.2921 8.00919 31.156 8.51119 31.8228C9.01439 32.4888 9.79978 32.8811 10.6342 32.8811H29.1388C29.9734 32.8811 30.7594 32.49 31.2624 31.8228C31.7646 31.1558 31.9252 30.2926 31.695 29.4902Z" fill="#6941C6"/>
<path d="M26.5962 14.9093C26.5962 19.2119 23.643 22.7003 20 22.7003C16.3572 22.7003 13.4042 19.2119 13.4042 14.9093C13.4042 10.6063 16.3572 7.11914 20 7.11914C23.6432 7.11914 26.5962 10.6065 26.5962 14.9093Z" fill="#6941C6"/>
</g>
<defs>
<clipPath id="clip0_374_4999">
<rect width="40" height="40" fill="white"/>
</clipPath>
</defs>
</svg>
