 <svg
        xmlns="http://www.w3.org/2000/svg"
        width="37"
        height="36"
        viewBox="0 0 37 36"
        fill="none"
      >
        <path
          d="M3.5 18.3059C3.5 14.8732 3.5 13.1569 4.2788 11.7341C5.0576 10.3113 6.48042 9.42826 9.32604 7.66219L12.326 5.8003C15.3341 3.93343 16.8381 3 18.5 3C20.1619 3 21.6659 3.93343 24.674 5.8003L27.674 7.66218C30.5196 9.42826 31.9424 10.3113 32.7212 11.7341C33.5 13.1569 33.5 14.8732 33.5 18.3059V20.5875C33.5 26.4387 33.5 29.3644 31.7426 31.1821C29.9853 33 27.1568 33 21.5 33H15.5C9.84314 33 7.01473 33 5.25736 31.1821C3.5 29.3644 3.5 26.4387 3.5 20.5875V18.3059Z"
          stroke="#667085"
          stroke-width="2"
        />
        <path
          d="M23 27H14"
          stroke="#667085"
          stroke-width="2"
          stroke-linecap="round"
        />
      </svg>