<svg width="36" height="36" viewBox="0 0 36 36" fill="none" xmlns="http://www.w3.org/2000/svg">
<path d="M28.1237 14.5644V13.5075C28.1237 7.70434 23.5911 3 18 3C12.4088 3 7.87631 7.70434 7.87631 13.5075V14.5644C7.87631 15.8328 7.51458 17.0727 6.8367 18.1281L5.17554 20.7142C3.65823 23.0764 4.81658 26.2873 7.45554 27.0343C14.3591 28.9885 21.6409 28.9885 28.5444 27.0343C31.1835 26.2873 32.3418 23.0764 30.8244 20.7142L29.1633 18.1281C28.4854 17.0727 28.1237 15.8328 28.1237 14.5644Z" stroke="#667085" stroke-width="2"/>
<path d="M11.25 28.5C12.2325 31.1217 14.8837 33 18 33C21.1163 33 23.7675 31.1217 24.75 28.5" stroke="#667085" stroke-width="2" stroke-linecap="round"/>
<path d="M18 9V15" stroke="#667085" stroke-width="2" stroke-linecap="round"/>
<circle cx="28" cy="8" r="8" fill="#FF671F"/>
<path d="M24.468 10.356C24.74 10.14 24.864 10.04 24.84 10.056C25.624 9.408 26.24 8.876 26.688 8.46C27.144 8.044 27.528 7.608 27.84 7.152C28.152 6.696 28.308 6.252 28.308 5.82C28.308 5.492 28.232 5.236 28.08 5.052C27.928 4.868 27.7 4.776 27.396 4.776C27.092 4.776 26.852 4.892 26.676 5.124C26.508 5.348 26.424 5.668 26.424 6.084H24.444C24.46 5.404 24.604 4.836 24.876 4.38C25.156 3.924 25.52 3.588 25.968 3.372C26.424 3.156 26.928 3.048 27.48 3.048C28.432 3.048 29.148 3.292 29.628 3.78C30.116 4.268 30.36 4.904 30.36 5.688C30.36 6.544 30.068 7.34 29.484 8.076C28.9 8.804 28.156 9.516 27.252 10.212H30.492V11.88H24.468V10.356Z" fill="white"/>
</svg>
