<svg width="37" height="37" viewBox="0 0 37 37" fill="none" xmlns="http://www.w3.org/2000/svg">
<g id="village">
<path id="Vector 6" d="M10.7854 6.65448L10.4044 8.42497C14.3664 9.03198 14.6965 13.1744 14.3664 15.1697C8.39296 14.3603 8.67741 9.4367 9.56631 7.07604L7.50914 6.06433C5.92436 10.381 7.71232 13.5397 8.8044 14.5796C8.8044 14.5796 4.69006 13.5116 3.85195 12.4718L2.32812 13.5678C3.48623 16.7379 7.35676 17.6147 9.26154 17.0245C14.0159 15.3383 16.4743 18.2892 17.1093 19.9753C14.1835 22.8756 15.8902 29.2774 17.1093 32.1159L13.6806 36.4999H16.3473C22.5646 30.3622 21.376 23.6568 20.0045 21.0714L19.2426 23.6006C19.4255 27.7824 18.6585 29.2212 18.2521 29.418C17.1093 26.973 16.9569 22.6732 19.6236 19.1322C21.7569 16.2995 27.1157 16.5468 29.5285 17.0245C32.5761 17.3618 33.9984 14.4952 34.4809 13.5678L32.6523 12.4718C31.0675 14.8999 28.9951 14.8887 28.157 14.5796C30.839 11.5444 29.7824 7.6381 28.9951 6.06433L27.3189 6.82311C29.2085 12.7585 24.8046 14.8606 22.3665 15.1697C22.0617 13.8882 22.4935 11.9941 22.7474 11.2072C23.296 9.72335 25.1602 8.84653 26.0237 8.5936L25.7951 6.65448C24.3932 6.24978 22.5696 7.60998 21.8331 8.34066C21.7112 6.85681 21.0712 5.81139 20.7664 5.47417L19.2426 6.65448C21.8027 12.3875 19.649 16.4062 18.2521 17.699C15.9969 14.1243 16.0426 11.0386 16.3473 9.94255C17.3835 5.08634 20.1315 3.59126 21.376 3.45075V1.34302C17.8407 1.34302 15.2299 6.00811 14.3664 8.34066C13.3911 6.72192 11.5727 6.54207 10.7854 6.65448Z" fill="#667085"/>
<path id="Vector 7" d="M21.9844 22.5046L22.2129 24.4437C26.3578 23.5669 28.7146 26.2704 29.3749 27.7317L31.2035 27.1416L29.9845 24.9495C32.6055 23.6006 33.8702 21.4648 34.175 20.5655V15.6755L32.2702 17.5303C32.2093 23.5331 27.9781 23.3477 25.8701 22.5046C27.2721 21.8976 27.7241 19.3851 27.7749 18.2048H25.6416C25.9463 20.5655 23.3304 22.0549 21.9844 22.5046Z" fill="#667085"/>
<path id="Vector 8" d="M13.9102 22.5523L13.7016 24.505C9.91944 23.6221 7.76881 26.3445 7.16626 27.8161L5.49767 27.2218L6.61007 25.0144C4.21842 23.656 3.06431 21.5052 2.78621 20.5997V15.6755L4.52433 17.5433C4.57995 23.5881 8.44088 23.4013 10.3644 22.5523C9.08514 21.9411 8.67263 19.4111 8.62628 18.2225H10.573C10.2949 20.5997 12.6819 22.0995 13.9102 22.5523Z" fill="#667085"/>
<path id="Vector 9" d="M9.1875 28.2807C10.0764 26.9037 12.2656 24.6217 13.9114 26.5103C13.7844 27.522 12.6618 29.2925 9.1875 28.2807Z" fill="#667085"/>
<path id="Vector 10" d="M27.2885 28.388C25.8233 28.873 22.8295 29.191 22.5754 26.5826C23.2362 25.8694 25.1039 25.232 27.2885 28.388Z" fill="#667085"/>
<path id="Vector 11" d="M36.0633 23.0794C35.433 24.6212 33.686 27.3302 31.7401 25.8314C31.6871 24.8116 32.4776 22.8336 36.0633 23.0794Z" fill="#667085"/>
<path id="Vector 12" d="M26.2098 2.6384C25.804 4.27 24.4592 7.24682 22.3263 6.10124C22.1305 5.10306 22.6332 3.01303 26.2098 2.6384Z" fill="#667085"/>
<path id="Vector 13" d="M11.7378 1.01516C13.1393 1.69233 15.6102 3.58981 14.2812 5.76246C13.3604 5.83447 11.5627 4.98583 11.7378 1.01516Z" fill="#667085"/>
<path id="Vector 14" d="M3.0666 7.24276C4.46383 7.93075 6.92263 9.8473 5.58 12.0096C4.65879 12.0745 2.86642 11.212 3.0666 7.24276Z" fill="#667085"/>
<path id="Vector 15" d="M0.547647 27.2106C1.40998 25.813 3.55502 23.4802 5.23655 25.3297C5.12897 26.3442 4.04057 28.1406 0.547647 27.2106Z" fill="#667085"/>
<path id="Vector 16" d="M19.8542 33.5C19.4375 34.0294 18.5833 35.1059 18.5 35.1765L20.1667 36.5H23.5L19.8542 33.5Z" fill="#667085"/>
</g>
</svg>
